<?xml version="1.0" encoding="iso-8859-1"?>
<!-- Uploaded to: SVG Repo, www.svgrepo.com, Generator: SVG Repo Mixer Tools -->
<svg height="80px" width="80px" version="1.1" id="Layer_1" xmlns="http://www.w3.org/2000/svg" xmlns:xlink="http://www.w3.org/1999/xlink" 
	 viewBox="0 0 512 512" xml:space="preserve">
<polygon style="fill:#F2F2F2;" points="318.627,161.275 256.424,193.368 194.221,161.275 256.424,129.182 "/>
<polygon style="fill:#72BEDE;" points="410.214,208.528 348.011,240.621 285.808,208.528 348.011,176.435 "/>
<polygon style="fill:#F2F2F2;" points="501.801,255.782 439.598,287.875 377.395,255.782 439.598,223.689 "/>
<polygon style="fill:#72BEDE;" points="226.616,208.747 164.413,240.84 102.21,208.747 164.413,176.654 "/>
<polygon style="fill:#F2F2F2;" points="318.203,256 256,288.093 193.797,256 256,223.907 "/>
<polygon style="fill:#72BEDE;" points="409.79,303.254 347.587,335.347 285.384,303.254 347.587,271.161 "/>
<polygon style="fill:#F2F2F2;" points="134.605,256.219 72.402,288.312 10.199,256.219 72.402,224.126 "/>
<polygon style="fill:#72BEDE;" points="226.192,303.472 163.989,335.565 101.786,303.472 163.989,271.379 "/>
<polygon style="fill:#F2F2F2;" points="317.779,350.726 255.576,382.819 193.373,350.726 255.576,318.633 "/>
<g>
	<path style="fill:#534741;" d="M256.424,203.567c-1.604,0-3.209-0.378-4.676-1.135l-62.203-32.093
		c-3.391-1.75-5.523-5.247-5.523-9.064c0-3.817,2.131-7.314,5.523-9.064l62.203-32.094c2.934-1.514,6.418-1.514,9.353,0
		l62.202,32.094c3.392,1.75,5.523,5.247,5.523,9.064c0,3.817-2.131,7.314-5.523,9.064l-62.202,32.093
		C259.634,203.189,258.029,203.567,256.424,203.567z M216.465,161.275l39.959,20.616l39.958-20.616l-39.958-20.617L216.465,161.275z
		"/>
	<path style="fill:#534741;" d="M348.011,250.82c-1.604,0-3.209-0.378-4.676-1.135l-62.203-32.093
		c-3.392-1.75-5.523-5.247-5.523-9.064s2.131-7.314,5.523-9.064l62.203-32.093c2.934-1.514,6.418-1.514,9.353,0l62.203,32.093
		c3.392,1.75,5.523,5.247,5.523,9.064s-2.131,7.314-5.523,9.064l-62.203,32.093C351.22,250.441,349.615,250.82,348.011,250.82z
		 M308.052,208.528l39.959,20.616l39.96-20.616l-39.96-20.616L308.052,208.528z"/>
	<path style="fill:#534741;" d="M439.598,298.074c-1.604,0-3.209-0.378-4.676-1.135l-62.202-32.093
		c-3.392-1.75-5.523-5.247-5.523-9.064c0-3.817,2.131-7.314,5.523-9.064l62.202-32.094c2.934-1.514,6.418-1.514,9.353,0
		l62.203,32.094c3.392,1.75,5.523,5.247,5.523,9.064c0,3.817-2.132,7.314-5.523,9.064l-62.203,32.093
		C442.807,297.695,441.202,298.074,439.598,298.074z M399.639,255.782l39.958,20.616l39.959-20.616l-39.959-20.617L399.639,255.782z
		"/>
	<path style="fill:#534741;" d="M164.413,251.039c-1.604,0-3.209-0.378-4.676-1.135l-62.203-32.093
		c-3.392-1.75-5.523-5.247-5.523-9.064s2.131-7.314,5.523-9.064l62.203-32.094c2.934-1.514,6.418-1.514,9.353,0l62.202,32.094
		c3.392,1.75,5.523,5.247,5.523,9.064s-2.131,7.314-5.523,9.064l-62.202,32.093C167.623,250.661,166.018,251.039,164.413,251.039z
		 M124.454,208.747l39.959,20.616l39.958-20.616l-39.958-20.617L124.454,208.747z"/>
	<path style="fill:#534741;" d="M256,298.293c-1.604,0-3.209-0.378-4.676-1.135l-62.203-32.094c-3.392-1.75-5.523-5.247-5.523-9.064
		c0-3.817,2.132-7.314,5.523-9.064l62.203-32.093c2.934-1.514,6.418-1.514,9.353,0l62.203,32.093
		c3.391,1.75,5.523,5.247,5.523,9.064c0,3.817-2.131,7.314-5.523,9.064l-62.203,32.094C259.209,297.915,257.604,298.293,256,298.293
		z M216.041,256L256,276.617L295.959,256L256,235.384L216.041,256z"/>
	<path style="fill:#534741;" d="M347.587,345.546c-1.604,0-3.209-0.378-4.676-1.135l-62.202-32.093
		c-3.392-1.75-5.523-5.247-5.523-9.064s2.131-7.314,5.523-9.064l62.202-32.094c2.934-1.514,6.418-1.514,9.353,0l62.203,32.094
		c3.392,1.75,5.523,5.247,5.523,9.064s-2.131,7.314-5.523,9.064l-62.203,32.093C350.795,345.168,349.191,345.546,347.587,345.546z
		 M307.628,303.254l39.958,20.616l39.959-20.616l-39.959-20.617L307.628,303.254z"/>
	<path style="fill:#534741;" d="M72.402,298.511c-1.604,0-3.209-0.378-4.676-1.135L5.523,265.283C2.131,263.533,0,260.036,0,256.219
		c0-3.817,2.131-7.314,5.523-9.064l62.203-32.093c2.934-1.514,6.418-1.514,9.353,0l62.202,32.093
		c3.392,1.75,5.523,5.247,5.523,9.064c0,3.817-2.131,7.314-5.523,9.064l-62.202,32.093
		C75.612,298.133,74.007,298.511,72.402,298.511z M32.444,256.219l39.959,20.616l39.958-20.616l-39.958-20.616L32.444,256.219z"/>
	<path style="fill:#534741;" d="M163.989,345.765c-1.604,0-3.209-0.378-4.676-1.135L97.11,312.536
		c-3.392-1.75-5.523-5.247-5.523-9.064c0-3.817,2.132-7.314,5.523-9.064l62.203-32.093c2.934-1.514,6.418-1.514,9.353,0
		l62.203,32.093c3.391,1.75,5.523,5.247,5.523,9.064c0,3.817-2.131,7.314-5.523,9.064l-62.203,32.094
		C167.199,345.387,165.593,345.765,163.989,345.765z M124.029,303.472l39.959,20.617l39.959-20.617l-39.959-20.616L124.029,303.472z
		"/>
	<path style="fill:#534741;" d="M255.576,393.018c-1.604,0-3.209-0.378-4.676-1.135l-62.202-32.093
		c-3.392-1.75-5.523-5.247-5.523-9.064c0-3.817,2.131-7.314,5.523-9.064l62.202-32.094c2.934-1.514,6.418-1.514,9.353,0
		l62.203,32.094c3.392,1.75,5.523,5.247,5.523,9.064c0,3.817-2.132,7.314-5.523,9.064l-62.203,32.093
		C258.784,392.64,257.18,393.018,255.576,393.018z M215.617,350.726l39.958,20.616l39.959-20.616l-39.959-20.617L215.617,350.726z"
		/>
</g>
</svg>